<mxfile host="app.diagrams.net" modified="2022-08-29T10:03:26.422Z" agent="5.0 (Windows NT 10.0; Win64; x64) AppleWebKit/537.36 (KHTML, like Gecko) Chrome/103.0.5060.114 Safari/537.36 Edg/103.0.1264.62" etag="vvrgUeyCQp0royXnAvA3" version="20.2.0" type="github" pages="4">
  <diagram id="prtHgNgQTEPvFCAcTncT" name="AS IS">
    <mxGraphModel dx="1278" dy="635" grid="1" gridSize="10" guides="1" tooltips="1" connect="1" arrows="1" fold="1" page="1" pageScale="1" pageWidth="827" pageHeight="1169" math="0" shadow="0">
      <root>
        <mxCell id="0" />
        <mxCell id="1" parent="0" />
        <mxCell id="dNxyNK7c78bLwvsdeMH5-11" value="Tech Structure" style="swimlane;html=1;startSize=20;horizontal=1;containerType=tree;glass=0;fillColor=#dae8fc;strokeColor=#6c8ebf;fontColor=#3333FF;" parent="1" vertex="1">
          <mxGeometry x="30" y="80" width="1480" height="500" as="geometry" />
        </mxCell>
        <UserObject label="%name%&lt;br&gt;&lt;i style=&quot;color: gray&quot;&gt;%position%&lt;br&gt;&lt;/i&gt;&lt;span style=&quot;font-family: , &amp;#34;blinkmacsystemfont&amp;#34; , &amp;#34;segoe ui variable&amp;#34; , &amp;#34;segoe ui&amp;#34; , , , &amp;#34;helvetica&amp;#34; , &amp;#34;arial&amp;#34; , sans-serif , &amp;#34;apple color emoji&amp;#34; , &amp;#34;segoe ui emoji&amp;#34; ; font-size: 14px ; font-weight: 400 ; background-color: rgb(255 , 255 , 255)&quot;&gt;&lt;br&gt;Line: %SupportLine%&lt;/span&gt;" name="Eugenio Meregalli" position="Senior Tech Manager" location="TECH" email="" placeholders="1" link="" SupportLine="ALL" id="dNxyNK7c78bLwvsdeMH5-12">
          <mxCell style="label;whiteSpace=wrap;html=1;rounded=1;glass=0;treeMoving=1;treeFolding=1;shadow=1;" parent="dNxyNK7c78bLwvsdeMH5-11" vertex="1">
            <mxGeometry x="594" y="30" width="220" height="120" as="geometry" />
          </mxCell>
        </UserObject>
        <mxCell id="dNxyNK7c78bLwvsdeMH5-13" value="" style="endArrow=blockThin;endFill=1;fontSize=11;edgeStyle=elbowEdgeStyle;elbow=vertical;rounded=0;" parent="dNxyNK7c78bLwvsdeMH5-11" source="dNxyNK7c78bLwvsdeMH5-12" target="dNxyNK7c78bLwvsdeMH5-14" edge="1">
          <mxGeometry relative="1" as="geometry" />
        </mxCell>
        <UserObject label="%name%&lt;br&gt;&lt;i style=&quot;color: gray&quot;&gt;%position%&lt;br&gt;&lt;/i&gt;&lt;font style=&quot;font-size: 12px&quot;&gt;&lt;span style=&quot;font-weight: 400 ; background-color: rgb(255 , 255 , 255)&quot;&gt;Line: &lt;/span&gt;&lt;span style=&quot;font-weight: 400 ; background-color: rgb(255 , 255 , 255)&quot;&gt;&lt;font style=&quot;font-size: 12px&quot;&gt;%SupportLine%&lt;/font&gt;&lt;/span&gt;&lt;/font&gt;" name="Federico Butti" position="Team Leader" location="TECH" email="" link="" SupportLine="SEN + APP" placeholders="1" id="dNxyNK7c78bLwvsdeMH5-14">
          <mxCell style="label;whiteSpace=wrap;html=1;rounded=1;glass=0;treeFolding=1;treeMoving=1;fillColor=#f8cecc;strokeColor=#b85450;shadow=1;" parent="dNxyNK7c78bLwvsdeMH5-11" vertex="1">
            <mxGeometry x="260" y="180" width="180" height="80" as="geometry" />
          </mxCell>
        </UserObject>
        <mxCell id="dNxyNK7c78bLwvsdeMH5-15" value="" style="endArrow=blockThin;endFill=1;fontSize=11;edgeStyle=elbowEdgeStyle;elbow=vertical;rounded=0;" parent="dNxyNK7c78bLwvsdeMH5-11" source="dNxyNK7c78bLwvsdeMH5-12" target="dNxyNK7c78bLwvsdeMH5-16" edge="1">
          <mxGeometry relative="1" as="geometry" />
        </mxCell>
        <UserObject label="%name%&lt;br&gt;&lt;i style=&quot;color: gray&quot;&gt;%position%&lt;br&gt;&lt;/i&gt;&lt;span style=&quot;font-weight: 400 ; background-color: rgb(255 , 255 , 255)&quot;&gt;Line:&amp;nbsp;&lt;/span&gt;&lt;span style=&quot;font-weight: 400 ; background-color: rgb(255 , 255 , 255)&quot;&gt;%SupportLine%&lt;/span&gt;" name="Giovanni Egitto" position="Team Leader" location="TECH" email="" link="" SupportLine="V&amp;M + IM" placeholders="1" id="dNxyNK7c78bLwvsdeMH5-16">
          <mxCell style="label;whiteSpace=wrap;html=1;rounded=1;glass=0;treeFolding=1;treeMoving=1;fillColor=#dae8fc;strokeColor=#6c8ebf;shadow=1;" parent="dNxyNK7c78bLwvsdeMH5-11" vertex="1">
            <mxGeometry x="968" y="180" width="180" height="80" as="geometry" />
          </mxCell>
        </UserObject>
        <mxCell id="dNxyNK7c78bLwvsdeMH5-17" value="" style="endArrow=blockThin;endFill=1;fontSize=11;edgeStyle=elbowEdgeStyle;elbow=vertical;rounded=0;" parent="dNxyNK7c78bLwvsdeMH5-11" source="dNxyNK7c78bLwvsdeMH5-12" target="dNxyNK7c78bLwvsdeMH5-18" edge="1">
          <mxGeometry relative="1" as="geometry" />
        </mxCell>
        <UserObject label="%name%&lt;br&gt;&lt;i style=&quot;color: gray&quot;&gt;%position%&lt;br&gt;&lt;/i&gt;&lt;span style=&quot;font-weight: 400 ; background-color: rgb(255 , 255 , 255)&quot;&gt;Line:&amp;nbsp;&lt;/span&gt;&lt;span style=&quot;font-weight: 400 ; background-color: rgb(255 , 255 , 255)&quot;&gt;%SupportLine%&lt;/span&gt;" name="Paolo Bertoglio" position="Tech Executive" location="TECH" email="" link="" SupportLine="MKG" placeholders="1" id="dNxyNK7c78bLwvsdeMH5-18">
          <mxCell style="label;whiteSpace=wrap;html=1;rounded=1;glass=0;fillColor=#d5e8d4;strokeColor=#82b366;shadow=1;" parent="dNxyNK7c78bLwvsdeMH5-11" vertex="1">
            <mxGeometry x="614" y="180" width="180" height="80" as="geometry" />
          </mxCell>
        </UserObject>
        <mxCell id="CyeVb8oGlmXGPLL4Kh8z-4" value="" style="endArrow=blockThin;endFill=1;fontSize=11;edgeStyle=elbowEdgeStyle;elbow=vertical;rounded=0;" parent="dNxyNK7c78bLwvsdeMH5-11" source="dNxyNK7c78bLwvsdeMH5-14" target="CyeVb8oGlmXGPLL4Kh8z-5" edge="1">
          <mxGeometry relative="1" as="geometry">
            <mxPoint x="410" y="230" as="sourcePoint" />
          </mxGeometry>
        </mxCell>
        <UserObject label="%name%&lt;br&gt;&lt;i style=&quot;color: gray&quot;&gt;%position%&lt;br&gt;&lt;/i&gt;&lt;font style=&quot;font-size: 12px&quot;&gt;&lt;span style=&quot;font-weight: 400 ; background-color: rgb(255 , 255 , 255)&quot;&gt;Line: &lt;/span&gt;&lt;span style=&quot;font-weight: 400 ; background-color: rgb(255 , 255 , 255)&quot;&gt;&lt;font style=&quot;font-size: 12px&quot;&gt;%SupportLine%&lt;/font&gt;&lt;/span&gt;&lt;/font&gt;" name="Jaspreet Singh" position="Member" location="TECH" email="" link="" SupportLine="SEN + APP + MKG" placeholders="1" id="CyeVb8oGlmXGPLL4Kh8z-5">
          <mxCell style="label;whiteSpace=wrap;html=1;rounded=1;glass=0;treeFolding=1;treeMoving=1;fillColor=#f8cecc;strokeColor=#b85450;shadow=1;" parent="dNxyNK7c78bLwvsdeMH5-11" vertex="1">
            <mxGeometry x="272" y="360" width="180" height="80" as="geometry" />
          </mxCell>
        </UserObject>
        <mxCell id="CyeVb8oGlmXGPLL4Kh8z-6" value="" style="endArrow=blockThin;endFill=1;fontSize=11;edgeStyle=elbowEdgeStyle;elbow=vertical;rounded=0;" parent="dNxyNK7c78bLwvsdeMH5-11" source="dNxyNK7c78bLwvsdeMH5-14" target="CyeVb8oGlmXGPLL4Kh8z-7" edge="1">
          <mxGeometry relative="1" as="geometry">
            <mxPoint x="410" y="230" as="sourcePoint" />
          </mxGeometry>
        </mxCell>
        <UserObject label="%name%&lt;br&gt;&lt;i style=&quot;color: gray&quot;&gt;%position%&lt;br&gt;&lt;/i&gt;&lt;font style=&quot;font-size: 12px&quot;&gt;&lt;span style=&quot;font-weight: 400 ; background-color: rgb(255 , 255 , 255)&quot;&gt;Line: &lt;/span&gt;&lt;span style=&quot;font-weight: 400 ; background-color: rgb(255 , 255 , 255)&quot;&gt;&lt;font style=&quot;font-size: 12px&quot;&gt;%SupportLine%&lt;/font&gt;&lt;/span&gt;&lt;/font&gt;" name="Serena Miglietta" position="Member" location="TECH" email="" link="" SupportLine="SEN + APP + IM" placeholders="1" id="CyeVb8oGlmXGPLL4Kh8z-7">
          <mxCell style="label;whiteSpace=wrap;html=1;rounded=1;glass=0;treeFolding=1;treeMoving=1;fillColor=#f8cecc;strokeColor=#b85450;shadow=1;" parent="dNxyNK7c78bLwvsdeMH5-11" vertex="1">
            <mxGeometry x="40" y="360" width="180" height="80" as="geometry" />
          </mxCell>
        </UserObject>
        <mxCell id="CyeVb8oGlmXGPLL4Kh8z-12" value="" style="endArrow=blockThin;endFill=1;fontSize=11;edgeStyle=elbowEdgeStyle;elbow=vertical;rounded=0;" parent="dNxyNK7c78bLwvsdeMH5-11" source="dNxyNK7c78bLwvsdeMH5-14" target="CyeVb8oGlmXGPLL4Kh8z-13" edge="1">
          <mxGeometry relative="1" as="geometry">
            <mxPoint x="410" y="230" as="sourcePoint" />
          </mxGeometry>
        </mxCell>
        <UserObject label="%name%&lt;br&gt;&lt;i style=&quot;color: gray&quot;&gt;%position%&lt;br&gt;&lt;/i&gt;&lt;font style=&quot;font-size: 12px&quot;&gt;&lt;span style=&quot;font-weight: 400 ; background-color: rgb(255 , 255 , 255)&quot;&gt;Line: &lt;/span&gt;&lt;span style=&quot;font-weight: 400 ; background-color: rgb(255 , 255 , 255)&quot;&gt;&lt;font style=&quot;font-size: 12px&quot;&gt;%SupportLine%&lt;/font&gt;&lt;/span&gt;&lt;/font&gt;" name="Paolo Carenzi" position="Member" location="TECH" email="" link="" SupportLine="SEN + APP" placeholders="1" id="CyeVb8oGlmXGPLL4Kh8z-13">
          <mxCell style="label;whiteSpace=wrap;html=1;rounded=1;glass=0;treeFolding=1;treeMoving=1;fillColor=#f8cecc;strokeColor=#b85450;shadow=1;" parent="dNxyNK7c78bLwvsdeMH5-11" vertex="1">
            <mxGeometry x="504" y="360" width="180" height="80" as="geometry" />
          </mxCell>
        </UserObject>
        <mxCell id="CyeVb8oGlmXGPLL4Kh8z-14" value="" style="endArrow=blockThin;endFill=1;fontSize=11;edgeStyle=elbowEdgeStyle;elbow=vertical;rounded=0;" parent="dNxyNK7c78bLwvsdeMH5-11" source="dNxyNK7c78bLwvsdeMH5-14" target="CyeVb8oGlmXGPLL4Kh8z-15" edge="1">
          <mxGeometry relative="1" as="geometry">
            <mxPoint x="410" y="230" as="sourcePoint" />
          </mxGeometry>
        </mxCell>
        <UserObject label="%name%&lt;br&gt;&lt;i style=&quot;color: gray&quot;&gt;%position%&lt;br&gt;&lt;/i&gt;&lt;font style=&quot;font-size: 12px&quot;&gt;&lt;span style=&quot;font-weight: 400 ; background-color: rgb(255 , 255 , 255)&quot;&gt;Line: &lt;/span&gt;&lt;span style=&quot;font-weight: 400 ; background-color: rgb(255 , 255 , 255)&quot;&gt;&lt;font style=&quot;font-size: 12px&quot;&gt;%SupportLine%&lt;/font&gt;&lt;/span&gt;&lt;/font&gt;" name="Fabio Ciardullo" position="Sales Executive" location="TECH" email="" link="" SupportLine="SEN + APP + VH" placeholders="1" id="CyeVb8oGlmXGPLL4Kh8z-15">
          <mxCell style="label;whiteSpace=wrap;html=1;rounded=1;glass=0;treeFolding=1;treeMoving=1;fillColor=#f8cecc;strokeColor=#b85450;shadow=1;" parent="dNxyNK7c78bLwvsdeMH5-11" vertex="1">
            <mxGeometry x="736" y="360" width="180" height="80" as="geometry" />
          </mxCell>
        </UserObject>
        <mxCell id="CyeVb8oGlmXGPLL4Kh8z-16" value="" style="endArrow=blockThin;endFill=1;fontSize=11;edgeStyle=elbowEdgeStyle;elbow=vertical;rounded=0;" parent="dNxyNK7c78bLwvsdeMH5-11" source="dNxyNK7c78bLwvsdeMH5-16" target="CyeVb8oGlmXGPLL4Kh8z-17" edge="1">
          <mxGeometry relative="1" as="geometry">
            <mxPoint x="410" y="230" as="sourcePoint" />
          </mxGeometry>
        </mxCell>
        <UserObject label="%name%&lt;br&gt;&lt;i style=&quot;color: gray&quot;&gt;%position%&lt;br&gt;&lt;/i&gt;&lt;span style=&quot;font-weight: 400 ; background-color: rgb(255 , 255 , 255)&quot;&gt;Line:&amp;nbsp;&lt;/span&gt;&lt;span style=&quot;font-weight: 400 ; background-color: rgb(255 , 255 , 255)&quot;&gt;%SupportLine%&lt;/span&gt;" name="Simona Cavalli" position="Member" location="TECH" email="" link="" SupportLine="V&amp;M" placeholders="1" id="CyeVb8oGlmXGPLL4Kh8z-17">
          <mxCell style="label;whiteSpace=wrap;html=1;rounded=1;glass=0;treeFolding=1;treeMoving=1;fillColor=#dae8fc;strokeColor=#6c8ebf;shadow=1;" parent="dNxyNK7c78bLwvsdeMH5-11" vertex="1">
            <mxGeometry x="968" y="360" width="180" height="80" as="geometry" />
          </mxCell>
        </UserObject>
        <mxCell id="CyeVb8oGlmXGPLL4Kh8z-18" value="" style="endArrow=blockThin;endFill=1;fontSize=11;edgeStyle=elbowEdgeStyle;elbow=vertical;rounded=0;" parent="dNxyNK7c78bLwvsdeMH5-11" source="dNxyNK7c78bLwvsdeMH5-16" target="CyeVb8oGlmXGPLL4Kh8z-19" edge="1">
          <mxGeometry relative="1" as="geometry">
            <mxPoint x="410" y="230" as="sourcePoint" />
          </mxGeometry>
        </mxCell>
        <UserObject label="%name%&lt;br&gt;&lt;i style=&quot;color: gray&quot;&gt;%position%&lt;br&gt;&lt;/i&gt;&lt;span style=&quot;font-weight: 400 ; background-color: rgb(255 , 255 , 255)&quot;&gt;Line:&amp;nbsp;&lt;/span&gt;&lt;span style=&quot;font-weight: 400 ; background-color: rgb(255 , 255 , 255)&quot;&gt;%SupportLine%&lt;/span&gt;" name="Manuel Sampieri" position="Member" location="TECH" email="" link="" SupportLine="V&amp;M" placeholders="1" id="CyeVb8oGlmXGPLL4Kh8z-19">
          <mxCell style="label;whiteSpace=wrap;html=1;rounded=1;glass=0;treeFolding=1;treeMoving=1;fillColor=#dae8fc;strokeColor=#6c8ebf;shadow=1;" parent="dNxyNK7c78bLwvsdeMH5-11" vertex="1">
            <mxGeometry x="1200" y="360" width="180" height="80" as="geometry" />
          </mxCell>
        </UserObject>
        <mxCell id="AqGIjzgZNf6zK04oClPv-1" value="Tech Structure Actual" style="text;strokeColor=none;fillColor=none;html=1;fontSize=24;fontStyle=1;verticalAlign=middle;align=center;fontColor=#3333FF;" parent="1" vertex="1">
          <mxGeometry x="50" y="20" width="240" height="40" as="geometry" />
        </mxCell>
      </root>
    </mxGraphModel>
  </diagram>
  <diagram name="January - 2021" id="NrDLZkLGvLAbwCEVd1RV">
    <mxGraphModel dx="1422" dy="762" grid="1" gridSize="10" guides="1" tooltips="1" connect="1" arrows="1" fold="1" page="1" pageScale="1.5" pageWidth="1654" pageHeight="1169" math="0" shadow="0">
      <root>
        <mxCell id="oaNLqm6Id40AhQp7kfjO-0" />
        <mxCell id="oaNLqm6Id40AhQp7kfjO-1" parent="oaNLqm6Id40AhQp7kfjO-0" />
        <mxCell id="oaNLqm6Id40AhQp7kfjO-2" value="Tech Structure" style="swimlane;html=1;startSize=20;horizontal=1;containerType=tree;glass=0;fillColor=#dae8fc;strokeColor=#6c8ebf;" parent="oaNLqm6Id40AhQp7kfjO-1" vertex="1">
          <mxGeometry x="40" y="85" width="2100" height="665" as="geometry">
            <mxRectangle x="30" y="85" width="120" height="20" as="alternateBounds" />
          </mxGeometry>
        </mxCell>
        <UserObject label="%name%&lt;br&gt;&lt;i style=&quot;color: gray&quot;&gt;%position%&lt;br&gt;&lt;/i&gt;&lt;span style=&quot;font-family: , &amp;#34;blinkmacsystemfont&amp;#34; , &amp;#34;segoe ui variable&amp;#34; , &amp;#34;segoe ui&amp;#34; , , , &amp;#34;helvetica&amp;#34; , &amp;#34;arial&amp;#34; , sans-serif , &amp;#34;apple color emoji&amp;#34; , &amp;#34;segoe ui emoji&amp;#34; ; font-size: 14px ; font-weight: 400 ; background-color: rgb(255 , 255 , 255)&quot;&gt;&lt;br&gt;Line: %SupportLine%&lt;/span&gt;" name="Eugenio Meregalli" position="Senior Tech Manager" location="TECH" email="" placeholders="1" link="" SupportLine="ALL" id="oaNLqm6Id40AhQp7kfjO-3">
          <mxCell style="label;whiteSpace=wrap;html=1;rounded=1;glass=0;treeMoving=1;treeFolding=1;shadow=1;" parent="oaNLqm6Id40AhQp7kfjO-2" vertex="1">
            <mxGeometry x="845" y="45" width="220" height="120" as="geometry" />
          </mxCell>
        </UserObject>
        <mxCell id="oaNLqm6Id40AhQp7kfjO-4" value="" style="endArrow=blockThin;endFill=1;fontSize=11;edgeStyle=elbowEdgeStyle;elbow=vertical;rounded=0;" parent="oaNLqm6Id40AhQp7kfjO-2" source="oaNLqm6Id40AhQp7kfjO-3" target="oaNLqm6Id40AhQp7kfjO-5" edge="1">
          <mxGeometry relative="1" as="geometry" />
        </mxCell>
        <UserObject label="%name%&lt;br&gt;&lt;i style=&quot;color: gray&quot;&gt;%position%&lt;br&gt;&lt;/i&gt;&lt;font style=&quot;font-size: 12px&quot;&gt;&lt;span style=&quot;font-weight: 400 ; background-color: rgb(255 , 255 , 255)&quot;&gt;Line: &lt;/span&gt;&lt;span style=&quot;font-weight: 400 ; background-color: rgb(255 , 255 , 255)&quot;&gt;&lt;font style=&quot;font-size: 12px&quot;&gt;%SupportLine%&lt;/font&gt;&lt;/span&gt;&lt;/font&gt;" name="Federico Butti" position="Team Leader" location="TECH" email="" link="" SupportLine="SEN + APP" placeholders="1" id="oaNLqm6Id40AhQp7kfjO-5">
          <mxCell style="label;whiteSpace=wrap;html=1;rounded=1;glass=0;treeFolding=1;treeMoving=1;fillColor=#f8cecc;strokeColor=#b85450;shadow=1;" parent="oaNLqm6Id40AhQp7kfjO-2" vertex="1">
            <mxGeometry x="390" y="205" width="180" height="80" as="geometry" />
          </mxCell>
        </UserObject>
        <mxCell id="oaNLqm6Id40AhQp7kfjO-6" value="" style="endArrow=blockThin;endFill=1;fontSize=11;edgeStyle=elbowEdgeStyle;elbow=vertical;rounded=0;" parent="oaNLqm6Id40AhQp7kfjO-2" source="oaNLqm6Id40AhQp7kfjO-3" target="oaNLqm6Id40AhQp7kfjO-7" edge="1">
          <mxGeometry relative="1" as="geometry" />
        </mxCell>
        <mxCell id="OHJS_ohoaWlkK6GeMSMR-2" style="edgeStyle=orthogonalEdgeStyle;rounded=0;orthogonalLoop=1;jettySize=auto;html=1;exitX=0.5;exitY=1;exitDx=0;exitDy=0;entryX=0.5;entryY=0;entryDx=0;entryDy=0;" parent="oaNLqm6Id40AhQp7kfjO-2" source="oaNLqm6Id40AhQp7kfjO-7" target="OHJS_ohoaWlkK6GeMSMR-1" edge="1">
          <mxGeometry relative="1" as="geometry" />
        </mxCell>
        <mxCell id="OHJS_ohoaWlkK6GeMSMR-3" style="edgeStyle=orthogonalEdgeStyle;rounded=0;orthogonalLoop=1;jettySize=auto;html=1;" parent="oaNLqm6Id40AhQp7kfjO-2" source="oaNLqm6Id40AhQp7kfjO-7" target="OHJS_ohoaWlkK6GeMSMR-0" edge="1">
          <mxGeometry relative="1" as="geometry" />
        </mxCell>
        <UserObject label="%name%&lt;br&gt;&lt;i style=&quot;color: gray&quot;&gt;%position%&lt;br&gt;&lt;/i&gt;&lt;span style=&quot;font-weight: 400 ; background-color: rgb(255 , 255 , 255)&quot;&gt;Line:&amp;nbsp;&lt;/span&gt;&lt;span style=&quot;font-weight: 400 ; background-color: rgb(255 , 255 , 255)&quot;&gt;%SupportLine%&lt;/span&gt;" name="Giovanni Egitto" position="Team Leader" location="TECH" email="" link="" SupportLine="V&amp;M + IM" placeholders="1" id="oaNLqm6Id40AhQp7kfjO-7">
          <mxCell style="label;whiteSpace=wrap;html=1;rounded=1;glass=0;treeFolding=1;treeMoving=1;fillColor=#dae8fc;strokeColor=#6c8ebf;shadow=1;" parent="oaNLqm6Id40AhQp7kfjO-2" vertex="1">
            <mxGeometry x="1220" y="205" width="180" height="80" as="geometry" />
          </mxCell>
        </UserObject>
        <mxCell id="oaNLqm6Id40AhQp7kfjO-8" value="" style="endArrow=blockThin;endFill=1;fontSize=11;edgeStyle=elbowEdgeStyle;elbow=vertical;rounded=0;" parent="oaNLqm6Id40AhQp7kfjO-2" source="oaNLqm6Id40AhQp7kfjO-3" target="oaNLqm6Id40AhQp7kfjO-9" edge="1">
          <mxGeometry relative="1" as="geometry" />
        </mxCell>
        <UserObject label="%name%&lt;br&gt;&lt;i style=&quot;color: gray&quot;&gt;%position%&lt;br&gt;&lt;/i&gt;&lt;span style=&quot;font-weight: 400 ; background-color: rgb(255 , 255 , 255)&quot;&gt;Line:&amp;nbsp;&lt;/span&gt;&lt;span style=&quot;font-weight: 400 ; background-color: rgb(255 , 255 , 255)&quot;&gt;%SupportLine%&lt;/span&gt;" name="Paolo Bertoglio" position="Tech Executive" location="TECH" email="" link="" SupportLine="MKG" placeholders="1" id="oaNLqm6Id40AhQp7kfjO-9">
          <mxCell style="label;whiteSpace=wrap;html=1;rounded=1;glass=0;fillColor=#d5e8d4;strokeColor=#82b366;shadow=1;" parent="oaNLqm6Id40AhQp7kfjO-2" vertex="1">
            <mxGeometry x="865" y="335" width="180" height="80" as="geometry" />
          </mxCell>
        </UserObject>
        <mxCell id="oaNLqm6Id40AhQp7kfjO-10" value="" style="endArrow=blockThin;endFill=1;fontSize=11;edgeStyle=elbowEdgeStyle;elbow=vertical;rounded=0;" parent="oaNLqm6Id40AhQp7kfjO-2" source="oaNLqm6Id40AhQp7kfjO-5" target="oaNLqm6Id40AhQp7kfjO-11" edge="1">
          <mxGeometry relative="1" as="geometry">
            <mxPoint x="410" y="230" as="sourcePoint" />
          </mxGeometry>
        </mxCell>
        <UserObject label="%name%&lt;br&gt;&lt;i style=&quot;color: gray&quot;&gt;%position%&lt;br&gt;&lt;/i&gt;&lt;font style=&quot;font-size: 12px&quot;&gt;&lt;span style=&quot;font-weight: 400 ; background-color: rgb(255 , 255 , 255)&quot;&gt;Line: &lt;/span&gt;&lt;span style=&quot;font-weight: 400 ; background-color: rgb(255 , 255 , 255)&quot;&gt;&lt;font style=&quot;font-size: 12px&quot;&gt;%SupportLine%&lt;/font&gt;&lt;/span&gt;&lt;/font&gt;" name="Jaspreet Singh" position="Member" location="TECH" email="" link="" SupportLine="APPLI + AUTO" placeholders="1" id="oaNLqm6Id40AhQp7kfjO-11">
          <mxCell style="label;whiteSpace=wrap;html=1;rounded=1;glass=0;treeFolding=1;treeMoving=1;fillColor=#f8cecc;strokeColor=#b85450;shadow=1;" parent="oaNLqm6Id40AhQp7kfjO-2" vertex="1">
            <mxGeometry x="450" y="555" width="180" height="80" as="geometry" />
          </mxCell>
        </UserObject>
        <mxCell id="oaNLqm6Id40AhQp7kfjO-12" value="" style="endArrow=blockThin;endFill=1;fontSize=11;edgeStyle=elbowEdgeStyle;elbow=vertical;rounded=0;exitX=0.5;exitY=1;exitDx=0;exitDy=0;" parent="oaNLqm6Id40AhQp7kfjO-2" source="oaNLqm6Id40AhQp7kfjO-5" target="oaNLqm6Id40AhQp7kfjO-13" edge="1">
          <mxGeometry relative="1" as="geometry">
            <mxPoint x="410" y="230" as="sourcePoint" />
          </mxGeometry>
        </mxCell>
        <UserObject label="%name%&lt;br&gt;&lt;i style=&quot;color: gray&quot;&gt;%position%&lt;br&gt;&lt;/i&gt;&lt;font style=&quot;font-size: 12px&quot;&gt;&lt;span style=&quot;font-weight: 400 ; background-color: rgb(255 , 255 , 255)&quot;&gt;Line: &lt;/span&gt;&lt;span style=&quot;font-weight: 400 ; background-color: rgb(255 , 255 , 255)&quot;&gt;&lt;font style=&quot;font-size: 12px&quot;&gt;%SupportLine%&lt;/font&gt;&lt;/span&gt;&lt;/font&gt;" name="Serena Miglietta" position="Member" location="TECH" email="" link="" SupportLine="SEN + APP" placeholders="1" id="oaNLqm6Id40AhQp7kfjO-13">
          <mxCell style="label;whiteSpace=wrap;html=1;rounded=1;glass=0;treeFolding=1;treeMoving=1;fillColor=#f8cecc;strokeColor=#b85450;shadow=1;" parent="oaNLqm6Id40AhQp7kfjO-2" vertex="1">
            <mxGeometry x="30" y="555" width="180" height="80" as="geometry" />
          </mxCell>
        </UserObject>
        <mxCell id="oaNLqm6Id40AhQp7kfjO-14" value="" style="endArrow=blockThin;endFill=1;fontSize=11;edgeStyle=elbowEdgeStyle;elbow=vertical;rounded=0;exitX=0.5;exitY=1;exitDx=0;exitDy=0;" parent="oaNLqm6Id40AhQp7kfjO-2" source="oaNLqm6Id40AhQp7kfjO-5" target="oaNLqm6Id40AhQp7kfjO-15" edge="1">
          <mxGeometry relative="1" as="geometry">
            <mxPoint x="410" y="230" as="sourcePoint" />
          </mxGeometry>
        </mxCell>
        <UserObject label="%name%&lt;br&gt;&lt;i style=&quot;color: gray&quot;&gt;%position%&lt;br&gt;&lt;/i&gt;&lt;font style=&quot;font-size: 12px&quot;&gt;&lt;span style=&quot;font-weight: 400 ; background-color: rgb(255 , 255 , 255)&quot;&gt;Line: &lt;/span&gt;&lt;span style=&quot;font-weight: 400 ; background-color: rgb(255 , 255 , 255)&quot;&gt;&lt;font style=&quot;font-size: 12px&quot;&gt;%SupportLine%&lt;/font&gt;&lt;/span&gt;&lt;/font&gt;" name="Paolo Carenzi" position="Member" location="TECH" email="" link="" SupportLine="SEN + APP" placeholders="1" id="oaNLqm6Id40AhQp7kfjO-15">
          <mxCell style="label;whiteSpace=wrap;html=1;rounded=1;glass=0;treeFolding=1;treeMoving=1;fillColor=#f8cecc;strokeColor=#b85450;shadow=1;" parent="oaNLqm6Id40AhQp7kfjO-2" vertex="1">
            <mxGeometry x="239" y="555" width="180" height="80" as="geometry" />
          </mxCell>
        </UserObject>
        <mxCell id="oaNLqm6Id40AhQp7kfjO-16" value="" style="endArrow=blockThin;endFill=1;fontSize=11;edgeStyle=elbowEdgeStyle;elbow=vertical;rounded=0;" parent="oaNLqm6Id40AhQp7kfjO-2" source="oaNLqm6Id40AhQp7kfjO-5" target="oaNLqm6Id40AhQp7kfjO-17" edge="1">
          <mxGeometry relative="1" as="geometry">
            <mxPoint x="410" y="230" as="sourcePoint" />
          </mxGeometry>
        </mxCell>
        <UserObject label="%name%&lt;br&gt;&lt;i style=&quot;color: gray&quot;&gt;%position%&lt;br&gt;&lt;/i&gt;&lt;font style=&quot;font-size: 12px&quot;&gt;&lt;span style=&quot;font-weight: 400 ; background-color: rgb(255 , 255 , 255)&quot;&gt;Line: &lt;/span&gt;&lt;span style=&quot;font-weight: 400 ; background-color: rgb(255 , 255 , 255)&quot;&gt;&lt;font style=&quot;font-size: 12px&quot;&gt;%SupportLine%&lt;/font&gt;&lt;/span&gt;&lt;/font&gt;" name="Fabio Ciardullo" position="Tech Executive" location="TECH" email="" link="" SupportLine="SEN + APP + VH" placeholders="1" id="oaNLqm6Id40AhQp7kfjO-17">
          <mxCell style="label;whiteSpace=wrap;html=1;rounded=1;glass=0;treeFolding=1;treeMoving=1;fillColor=#f8cecc;strokeColor=#b85450;shadow=1;align=left;labelPosition=center;verticalLabelPosition=middle;verticalAlign=middle;spacingLeft=20;" parent="oaNLqm6Id40AhQp7kfjO-2" vertex="1">
            <mxGeometry x="685" y="553.75" width="180" height="80" as="geometry" />
          </mxCell>
        </UserObject>
        <mxCell id="oaNLqm6Id40AhQp7kfjO-18" value="" style="endArrow=blockThin;endFill=1;fontSize=11;edgeStyle=elbowEdgeStyle;elbow=vertical;rounded=0;" parent="oaNLqm6Id40AhQp7kfjO-2" source="oaNLqm6Id40AhQp7kfjO-7" target="oaNLqm6Id40AhQp7kfjO-19" edge="1">
          <mxGeometry relative="1" as="geometry">
            <mxPoint x="410" y="230" as="sourcePoint" />
          </mxGeometry>
        </mxCell>
        <UserObject label="%name%&lt;br&gt;&lt;i style=&quot;color: gray&quot;&gt;%position%&lt;br&gt;&lt;/i&gt;&lt;span style=&quot;font-weight: 400 ; background-color: rgb(255 , 255 , 255)&quot;&gt;Line:&amp;nbsp;&lt;/span&gt;&lt;span style=&quot;font-weight: 400 ; background-color: rgb(255 , 255 , 255)&quot;&gt;%SupportLine%&lt;/span&gt;" name="Simona Cavalli" position="Member" location="TECH" email="" link="" SupportLine="Vision + HPM" placeholders="1" id="oaNLqm6Id40AhQp7kfjO-19">
          <mxCell style="label;whiteSpace=wrap;html=1;rounded=1;glass=0;treeFolding=1;treeMoving=1;fillColor=#dae8fc;strokeColor=#6c8ebf;shadow=1;" parent="oaNLqm6Id40AhQp7kfjO-2" vertex="1">
            <mxGeometry x="1060" y="552.5" width="185" height="82.5" as="geometry" />
          </mxCell>
        </UserObject>
        <UserObject label="%name%&lt;br&gt;&lt;i style=&quot;color: gray&quot;&gt;%position%&lt;br&gt;&lt;/i&gt;&lt;span style=&quot;font-weight: 400 ; background-color: rgb(255 , 255 , 255)&quot;&gt;Line:&amp;nbsp;&lt;/span&gt;&lt;span style=&quot;font-weight: 400 ; background-color: rgb(255 , 255 , 255)&quot;&gt;%SupportLine%&lt;/span&gt;" name="Manuel Sampieri" position="Member" location="TECH" email="" link="" SupportLine="Vision" placeholders="1" id="oaNLqm6Id40AhQp7kfjO-21">
          <mxCell style="label;whiteSpace=wrap;html=1;rounded=1;glass=0;treeFolding=1;treeMoving=1;fillColor=#dae8fc;strokeColor=#6c8ebf;shadow=1;" parent="oaNLqm6Id40AhQp7kfjO-2" vertex="1">
            <mxGeometry x="1283" y="555" width="180" height="80" as="geometry" />
          </mxCell>
        </UserObject>
        <mxCell id="mylN2vnGyu_a2ICeeERr-9" style="edgeStyle=orthogonalEdgeStyle;rounded=0;orthogonalLoop=1;jettySize=auto;html=1;fontSize=12;exitX=0.5;exitY=1;exitDx=0;exitDy=0;" parent="oaNLqm6Id40AhQp7kfjO-2" source="oaNLqm6Id40AhQp7kfjO-7" target="oaNLqm6Id40AhQp7kfjO-21" edge="1">
          <mxGeometry relative="1" as="geometry" />
        </mxCell>
        <UserObject label="%name%&lt;br&gt;&lt;i style=&quot;color: gray&quot;&gt;%position%&lt;br&gt;&lt;/i&gt;&lt;span style=&quot;font-weight: 400 ; background-color: rgb(255 , 255 , 255)&quot;&gt;Line:&amp;nbsp;&lt;/span&gt;&lt;span style=&quot;font-weight: 400 ; background-color: rgb(255 , 255 , 255)&quot;&gt;%SupportLine%&lt;/span&gt;" name="New" position="Member" location="TECH" email="" link="" SupportLine="Vision" placeholders="1" id="OHJS_ohoaWlkK6GeMSMR-0">
          <mxCell style="label;whiteSpace=wrap;html=1;rounded=1;glass=0;treeFolding=1;treeMoving=1;fillColor=#fff2cc;strokeColor=#d6b656;shadow=1;fontColor=#000000;" parent="oaNLqm6Id40AhQp7kfjO-2" vertex="1">
            <mxGeometry x="1700" y="555" width="180" height="80" as="geometry" />
          </mxCell>
        </UserObject>
        <UserObject label="%name%&lt;br&gt;&lt;i style=&quot;color: gray&quot;&gt;%position%&lt;br&gt;&lt;/i&gt;&lt;span style=&quot;font-weight: 400 ; background-color: rgb(255 , 255 , 255)&quot;&gt;Line:&amp;nbsp;&lt;/span&gt;&lt;span style=&quot;font-weight: 400 ; background-color: rgb(255 , 255 , 255)&quot;&gt;%SupportLine%&lt;/span&gt;" name="New" position="Member" location="TECH" email="" link="" SupportLine="Vision" placeholders="1" id="OHJS_ohoaWlkK6GeMSMR-1">
          <mxCell style="label;whiteSpace=wrap;html=1;rounded=1;glass=0;treeFolding=1;treeMoving=1;fillColor=#fff2cc;strokeColor=#d6b656;shadow=1;fontColor=#000000;" parent="oaNLqm6Id40AhQp7kfjO-2" vertex="1">
            <mxGeometry x="1500" y="555" width="180" height="80" as="geometry" />
          </mxCell>
        </UserObject>
        <mxCell id="qdMh3dPk9ewnLGr1pGxn-0" value="Tech Structure idea" style="text;strokeColor=none;fillColor=none;html=1;fontSize=24;fontStyle=1;verticalAlign=middle;align=center;fontColor=#3333FF;" parent="oaNLqm6Id40AhQp7kfjO-1" vertex="1">
          <mxGeometry x="50" y="20" width="240" height="40" as="geometry" />
        </mxCell>
        <UserObject label="%name%&lt;br&gt;&lt;i style=&quot;color: gray&quot;&gt;%position%&lt;br&gt;&lt;/i&gt;&lt;span style=&quot;font-weight: 400 ; background-color: rgb(255 , 255 , 255)&quot;&gt;Line:&amp;nbsp;&lt;/span&gt;&lt;span style=&quot;font-weight: 400 ; background-color: rgb(255 , 255 , 255)&quot;&gt;%SupportLine%&lt;/span&gt;" name="New" position="Member" location="TECH" email="" link="" SupportLine="Vision" placeholders="1" id="aGIakuPbkwi47S_4C-Ci-2">
          <mxCell style="label;whiteSpace=wrap;html=1;rounded=1;glass=0;treeFolding=1;treeMoving=1;fillColor=#fff2cc;strokeColor=#d6b656;shadow=1;fontColor=#000000;" parent="oaNLqm6Id40AhQp7kfjO-1" vertex="1">
            <mxGeometry x="1940" y="640" width="180" height="80" as="geometry" />
          </mxCell>
        </UserObject>
        <mxCell id="aGIakuPbkwi47S_4C-Ci-3" value="" style="endArrow=blockThin;endFill=1;fontSize=11;edgeStyle=elbowEdgeStyle;elbow=vertical;rounded=0;" parent="oaNLqm6Id40AhQp7kfjO-1" source="oaNLqm6Id40AhQp7kfjO-1" target="aGIakuPbkwi47S_4C-Ci-2" edge="1">
          <mxGeometry relative="1" as="geometry">
            <mxPoint x="1660" y="500" as="sourcePoint" />
            <mxPoint x="1830" y="640" as="targetPoint" />
          </mxGeometry>
        </mxCell>
        <mxCell id="aGIakuPbkwi47S_4C-Ci-6" style="edgeStyle=orthogonalEdgeStyle;rounded=0;orthogonalLoop=1;jettySize=auto;html=1;exitX=0.5;exitY=1;exitDx=0;exitDy=0;" parent="oaNLqm6Id40AhQp7kfjO-1" source="oaNLqm6Id40AhQp7kfjO-7" target="aGIakuPbkwi47S_4C-Ci-2" edge="1">
          <mxGeometry relative="1" as="geometry" />
        </mxCell>
      </root>
    </mxGraphModel>
  </diagram>
  <diagram name="FY-2022 - !H" id="ZM5fa7YmxKRSMkI19Rrs">
    <mxGraphModel dx="2062" dy="887" grid="1" gridSize="10" guides="1" tooltips="1" connect="1" arrows="1" fold="1" page="1" pageScale="1.5" pageWidth="1654" pageHeight="1169" math="0" shadow="0">
      <root>
        <mxCell id="aZdlIUR2iYrZKvGYE1C7-0" />
        <mxCell id="aZdlIUR2iYrZKvGYE1C7-1" parent="aZdlIUR2iYrZKvGYE1C7-0" />
        <mxCell id="aZdlIUR2iYrZKvGYE1C7-2" value="Tech Structure" style="swimlane;html=1;startSize=20;horizontal=1;containerType=tree;glass=0;fillColor=#dae8fc;strokeColor=#6c8ebf;" parent="aZdlIUR2iYrZKvGYE1C7-1" vertex="1">
          <mxGeometry x="60" y="110" width="2100" height="665" as="geometry">
            <mxRectangle x="30" y="85" width="120" height="20" as="alternateBounds" />
          </mxGeometry>
        </mxCell>
        <UserObject label="%name%&lt;br&gt;&lt;i style=&quot;color: gray&quot;&gt;%position%&lt;br&gt;&lt;/i&gt;&lt;span style=&quot;font-family: , &amp;#34;blinkmacsystemfont&amp;#34; , &amp;#34;segoe ui variable&amp;#34; , &amp;#34;segoe ui&amp;#34; , , , &amp;#34;helvetica&amp;#34; , &amp;#34;arial&amp;#34; , sans-serif , &amp;#34;apple color emoji&amp;#34; , &amp;#34;segoe ui emoji&amp;#34; ; font-size: 14px ; font-weight: 400 ; background-color: rgb(255 , 255 , 255)&quot;&gt;&lt;br&gt;Line: %SupportLine%&lt;/span&gt;" name="Eugenio Meregalli" position="Senior Tech Manager" location="TECH" email="" placeholders="1" link="" SupportLine="ALL" id="aZdlIUR2iYrZKvGYE1C7-3">
          <mxCell style="label;whiteSpace=wrap;html=1;rounded=1;glass=0;treeMoving=1;treeFolding=1;shadow=1;" parent="aZdlIUR2iYrZKvGYE1C7-2" vertex="1">
            <mxGeometry x="845" y="45" width="220" height="120" as="geometry" />
          </mxCell>
        </UserObject>
        <mxCell id="aZdlIUR2iYrZKvGYE1C7-4" value="" style="endArrow=blockThin;endFill=1;fontSize=11;edgeStyle=elbowEdgeStyle;elbow=vertical;rounded=0;" parent="aZdlIUR2iYrZKvGYE1C7-2" source="aZdlIUR2iYrZKvGYE1C7-3" target="aZdlIUR2iYrZKvGYE1C7-5" edge="1">
          <mxGeometry relative="1" as="geometry" />
        </mxCell>
        <UserObject label="%name%&lt;br&gt;&lt;i style=&quot;color: gray&quot;&gt;%position%&lt;br&gt;&lt;/i&gt;&lt;font style=&quot;font-size: 12px&quot;&gt;&lt;span style=&quot;font-weight: 400 ; background-color: rgb(255 , 255 , 255)&quot;&gt;Line: &lt;/span&gt;&lt;span style=&quot;font-weight: 400 ; background-color: rgb(255 , 255 , 255)&quot;&gt;&lt;font style=&quot;font-size: 12px&quot;&gt;%SupportLine%&lt;/font&gt;&lt;/span&gt;&lt;/font&gt;" name="Federico Butti" position="Team Leader" location="TECH" email="" link="" SupportLine="SEN + APP" placeholders="1" id="aZdlIUR2iYrZKvGYE1C7-5">
          <mxCell style="label;whiteSpace=wrap;html=1;rounded=1;glass=0;treeFolding=1;treeMoving=1;fillColor=#f8cecc;strokeColor=#b85450;shadow=1;" parent="aZdlIUR2iYrZKvGYE1C7-2" vertex="1">
            <mxGeometry x="390" y="205" width="180" height="80" as="geometry" />
          </mxCell>
        </UserObject>
        <mxCell id="aZdlIUR2iYrZKvGYE1C7-6" value="" style="endArrow=blockThin;endFill=1;fontSize=11;edgeStyle=elbowEdgeStyle;elbow=vertical;rounded=0;" parent="aZdlIUR2iYrZKvGYE1C7-2" source="aZdlIUR2iYrZKvGYE1C7-3" target="aZdlIUR2iYrZKvGYE1C7-9" edge="1">
          <mxGeometry relative="1" as="geometry" />
        </mxCell>
        <mxCell id="aZdlIUR2iYrZKvGYE1C7-7" style="edgeStyle=orthogonalEdgeStyle;rounded=0;orthogonalLoop=1;jettySize=auto;html=1;exitX=0.5;exitY=1;exitDx=0;exitDy=0;entryX=0.5;entryY=0;entryDx=0;entryDy=0;" parent="aZdlIUR2iYrZKvGYE1C7-2" source="aZdlIUR2iYrZKvGYE1C7-9" target="aZdlIUR2iYrZKvGYE1C7-25" edge="1">
          <mxGeometry relative="1" as="geometry" />
        </mxCell>
        <mxCell id="aZdlIUR2iYrZKvGYE1C7-8" style="edgeStyle=orthogonalEdgeStyle;rounded=0;orthogonalLoop=1;jettySize=auto;html=1;exitX=0.5;exitY=1;exitDx=0;exitDy=0;" parent="aZdlIUR2iYrZKvGYE1C7-2" source="aZdlIUR2iYrZKvGYE1C7-9" target="aZdlIUR2iYrZKvGYE1C7-24" edge="1">
          <mxGeometry relative="1" as="geometry" />
        </mxCell>
        <UserObject label="%name%&lt;br&gt;&lt;i style=&quot;color: gray&quot;&gt;%position%&lt;br&gt;&lt;/i&gt;&lt;span style=&quot;font-weight: 400 ; background-color: rgb(255 , 255 , 255)&quot;&gt;Line:&amp;nbsp;&lt;/span&gt;&lt;span style=&quot;font-weight: 400 ; background-color: rgb(255 , 255 , 255)&quot;&gt;%SupportLine%&lt;/span&gt;" name="Giovanni Egitto" position="Team Leader" location="TECH" email="" link="" SupportLine="V&amp;M + IM" placeholders="1" id="aZdlIUR2iYrZKvGYE1C7-9">
          <mxCell style="label;whiteSpace=wrap;html=1;rounded=1;glass=0;treeFolding=1;treeMoving=1;fillColor=#dae8fc;strokeColor=#6c8ebf;shadow=1;" parent="aZdlIUR2iYrZKvGYE1C7-2" vertex="1">
            <mxGeometry x="1280" y="300" width="180" height="80" as="geometry" />
          </mxCell>
        </UserObject>
        <mxCell id="aZdlIUR2iYrZKvGYE1C7-10" value="" style="endArrow=blockThin;endFill=1;fontSize=11;edgeStyle=elbowEdgeStyle;elbow=vertical;rounded=0;" parent="aZdlIUR2iYrZKvGYE1C7-2" source="aZdlIUR2iYrZKvGYE1C7-3" target="aZdlIUR2iYrZKvGYE1C7-11" edge="1">
          <mxGeometry relative="1" as="geometry" />
        </mxCell>
        <UserObject label="%name%&lt;br&gt;&lt;i style=&quot;color: gray&quot;&gt;%position%&lt;br&gt;&lt;/i&gt;&lt;span style=&quot;font-weight: 400 ; background-color: rgb(255 , 255 , 255)&quot;&gt;Line:&amp;nbsp;&lt;/span&gt;&lt;span style=&quot;font-weight: 400 ; background-color: rgb(255 , 255 , 255)&quot;&gt;%SupportLine%&lt;/span&gt;" name="Sebastiano Panfili" position="Member" location="TECH" email="" link="" SupportLine="MKG" placeholders="1" id="aZdlIUR2iYrZKvGYE1C7-11">
          <mxCell style="label;whiteSpace=wrap;html=1;rounded=1;glass=0;fillColor=#d5e8d4;strokeColor=#82b366;shadow=1;" parent="aZdlIUR2iYrZKvGYE1C7-2" vertex="1">
            <mxGeometry x="865" y="555" width="180" height="80" as="geometry" />
          </mxCell>
        </UserObject>
        <mxCell id="aZdlIUR2iYrZKvGYE1C7-12" value="" style="endArrow=blockThin;endFill=1;fontSize=11;edgeStyle=elbowEdgeStyle;elbow=vertical;rounded=0;" parent="aZdlIUR2iYrZKvGYE1C7-2" source="aZdlIUR2iYrZKvGYE1C7-5" target="aZdlIUR2iYrZKvGYE1C7-13" edge="1">
          <mxGeometry relative="1" as="geometry">
            <mxPoint x="410" y="230" as="sourcePoint" />
          </mxGeometry>
        </mxCell>
        <UserObject label="%name%&lt;br&gt;&lt;i style=&quot;color: gray&quot;&gt;%position%&lt;br&gt;&lt;/i&gt;&lt;font style=&quot;font-size: 12px&quot;&gt;&lt;span style=&quot;font-weight: 400 ; background-color: rgb(255 , 255 , 255)&quot;&gt;Line: &lt;/span&gt;&lt;span style=&quot;font-weight: 400 ; background-color: rgb(255 , 255 , 255)&quot;&gt;&lt;font style=&quot;font-size: 12px&quot;&gt;%SupportLine%&lt;/font&gt;&lt;/span&gt;&lt;/font&gt;" name="Jaspreet Singh" position="Member" location="TECH" email="" link="" SupportLine="APPLI + AUTO" placeholders="1" id="aZdlIUR2iYrZKvGYE1C7-13">
          <mxCell style="label;whiteSpace=wrap;html=1;rounded=1;glass=0;treeFolding=1;treeMoving=1;fillColor=#f8cecc;strokeColor=#b85450;shadow=1;" parent="aZdlIUR2iYrZKvGYE1C7-2" vertex="1">
            <mxGeometry x="443" y="553.75" width="180" height="80" as="geometry" />
          </mxCell>
        </UserObject>
        <mxCell id="aZdlIUR2iYrZKvGYE1C7-16" value="" style="endArrow=blockThin;endFill=1;fontSize=11;edgeStyle=elbowEdgeStyle;elbow=vertical;rounded=0;exitX=0.5;exitY=1;exitDx=0;exitDy=0;" parent="aZdlIUR2iYrZKvGYE1C7-2" source="aZdlIUR2iYrZKvGYE1C7-5" target="aZdlIUR2iYrZKvGYE1C7-17" edge="1">
          <mxGeometry relative="1" as="geometry">
            <mxPoint x="410" y="230" as="sourcePoint" />
          </mxGeometry>
        </mxCell>
        <UserObject label="%name%&lt;br&gt;&lt;i style=&quot;color: gray&quot;&gt;%position%&lt;br&gt;&lt;/i&gt;&lt;font style=&quot;font-size: 12px&quot;&gt;&lt;span style=&quot;font-weight: 400 ; background-color: rgb(255 , 255 , 255)&quot;&gt;Line: &lt;/span&gt;&lt;span style=&quot;font-weight: 400 ; background-color: rgb(255 , 255 , 255)&quot;&gt;&lt;font style=&quot;font-size: 12px&quot;&gt;%SupportLine%&lt;/font&gt;&lt;/span&gt;&lt;/font&gt;" name="Paolo Carenzi" position="Member" location="TECH" email="" link="" SupportLine="SEN + APP" placeholders="1" id="aZdlIUR2iYrZKvGYE1C7-17">
          <mxCell style="label;whiteSpace=wrap;html=1;rounded=1;glass=0;treeFolding=1;treeMoving=1;fillColor=#f8cecc;strokeColor=#b85450;shadow=1;" parent="aZdlIUR2iYrZKvGYE1C7-2" vertex="1">
            <mxGeometry x="10" y="553.75" width="180" height="80" as="geometry" />
          </mxCell>
        </UserObject>
        <mxCell id="aZdlIUR2iYrZKvGYE1C7-18" value="" style="endArrow=blockThin;endFill=1;fontSize=11;edgeStyle=elbowEdgeStyle;elbow=vertical;rounded=0;" parent="aZdlIUR2iYrZKvGYE1C7-2" source="aZdlIUR2iYrZKvGYE1C7-5" target="aZdlIUR2iYrZKvGYE1C7-19" edge="1">
          <mxGeometry relative="1" as="geometry">
            <mxPoint x="410" y="230" as="sourcePoint" />
          </mxGeometry>
        </mxCell>
        <UserObject label="%name%&lt;br&gt;&lt;i style=&quot;color: gray&quot;&gt;%position%&lt;br&gt;&lt;/i&gt;&lt;font style=&quot;font-size: 12px&quot;&gt;&lt;span style=&quot;font-weight: 400 ; background-color: rgb(255 , 255 , 255)&quot;&gt;Line: &lt;/span&gt;&lt;span style=&quot;font-weight: 400 ; background-color: rgb(255 , 255 , 255)&quot;&gt;&lt;font style=&quot;font-size: 12px&quot;&gt;%SupportLine%&lt;/font&gt;&lt;/span&gt;&lt;/font&gt;" name="Fabio Ciardullo" position="Tech Executive" location="TECH" email="" link="" SupportLine="SEN + APP + VH" placeholders="1" id="aZdlIUR2iYrZKvGYE1C7-19">
          <mxCell style="label;whiteSpace=wrap;html=1;rounded=1;glass=0;treeFolding=1;treeMoving=1;fillColor=#f8cecc;strokeColor=#b85450;shadow=1;align=left;labelPosition=center;verticalLabelPosition=middle;verticalAlign=middle;spacingLeft=20;" parent="aZdlIUR2iYrZKvGYE1C7-2" vertex="1">
            <mxGeometry x="120" y="330" width="180" height="80" as="geometry" />
          </mxCell>
        </UserObject>
        <mxCell id="aZdlIUR2iYrZKvGYE1C7-20" value="" style="endArrow=blockThin;endFill=1;fontSize=11;edgeStyle=elbowEdgeStyle;elbow=vertical;rounded=0;" parent="aZdlIUR2iYrZKvGYE1C7-2" source="aZdlIUR2iYrZKvGYE1C7-9" target="aZdlIUR2iYrZKvGYE1C7-21" edge="1">
          <mxGeometry relative="1" as="geometry">
            <mxPoint x="410" y="230" as="sourcePoint" />
          </mxGeometry>
        </mxCell>
        <UserObject label="%name%&lt;br&gt;&lt;i style=&quot;color: gray&quot;&gt;%position%&lt;br&gt;&lt;/i&gt;&lt;span style=&quot;font-weight: 400 ; background-color: rgb(255 , 255 , 255)&quot;&gt;Line:&amp;nbsp;&lt;/span&gt;&lt;span style=&quot;font-weight: 400 ; background-color: rgb(255 , 255 , 255)&quot;&gt;%SupportLine%&lt;/span&gt;" name="Simona Cavalli" position="Member" location="TECH" email="" link="" SupportLine="Vision + HPM" placeholders="1" id="aZdlIUR2iYrZKvGYE1C7-21">
          <mxCell style="label;whiteSpace=wrap;html=1;rounded=1;glass=0;treeFolding=1;treeMoving=1;fillColor=#dae8fc;strokeColor=#6c8ebf;shadow=1;" parent="aZdlIUR2iYrZKvGYE1C7-2" vertex="1">
            <mxGeometry x="1060" y="552.5" width="185" height="82.5" as="geometry" />
          </mxCell>
        </UserObject>
        <UserObject label="%name%&lt;br&gt;&lt;i style=&quot;color: gray&quot;&gt;%position%&lt;br&gt;&lt;/i&gt;&lt;span style=&quot;font-weight: 400 ; background-color: rgb(255 , 255 , 255)&quot;&gt;Line:&amp;nbsp;&lt;/span&gt;&lt;span style=&quot;font-weight: 400 ; background-color: rgb(255 , 255 , 255)&quot;&gt;%SupportLine%&lt;/span&gt;" name="Manuel Sampieri" position="Member" location="TECH" email="" link="" SupportLine="Vision" placeholders="1" id="aZdlIUR2iYrZKvGYE1C7-22">
          <mxCell style="label;whiteSpace=wrap;html=1;rounded=1;glass=0;treeFolding=1;treeMoving=1;fillColor=#dae8fc;strokeColor=#6c8ebf;shadow=1;" parent="aZdlIUR2iYrZKvGYE1C7-2" vertex="1">
            <mxGeometry x="1283" y="555" width="180" height="80" as="geometry" />
          </mxCell>
        </UserObject>
        <mxCell id="aZdlIUR2iYrZKvGYE1C7-23" style="edgeStyle=orthogonalEdgeStyle;rounded=0;orthogonalLoop=1;jettySize=auto;html=1;fontSize=12;exitX=0.5;exitY=1;exitDx=0;exitDy=0;" parent="aZdlIUR2iYrZKvGYE1C7-2" source="aZdlIUR2iYrZKvGYE1C7-9" target="aZdlIUR2iYrZKvGYE1C7-22" edge="1">
          <mxGeometry relative="1" as="geometry" />
        </mxCell>
        <UserObject label="%name%&lt;br&gt;&lt;i style=&quot;color: gray&quot;&gt;%position%&lt;br&gt;&lt;/i&gt;&lt;span style=&quot;font-weight: 400 ; background-color: rgb(255 , 255 , 255)&quot;&gt;Line:&amp;nbsp;&lt;/span&gt;&lt;span style=&quot;font-weight: 400 ; background-color: rgb(255 , 255 , 255)&quot;&gt;%SupportLine%&lt;/span&gt;" name="Emilio Redaelli" position="Member" location="TECH" email="" link="" SupportLine="Vision" placeholders="1" id="aZdlIUR2iYrZKvGYE1C7-24">
          <mxCell style="label;whiteSpace=wrap;html=1;rounded=1;glass=0;treeFolding=1;treeMoving=1;fillColor=#dae8fc;strokeColor=#6c8ebf;shadow=1;fontColor=default;" parent="aZdlIUR2iYrZKvGYE1C7-2" vertex="1">
            <mxGeometry x="1700" y="555" width="180" height="80" as="geometry" />
          </mxCell>
        </UserObject>
        <UserObject label="%name%&lt;br&gt;&lt;i style=&quot;color: gray&quot;&gt;%position%&lt;br&gt;&lt;/i&gt;&lt;span style=&quot;font-weight: 400 ; background-color: rgb(255 , 255 , 255)&quot;&gt;Line:&amp;nbsp;&lt;/span&gt;&lt;span style=&quot;font-weight: 400 ; background-color: rgb(255 , 255 , 255)&quot;&gt;%SupportLine%&lt;/span&gt;" name="Pietro Marelli" position="Member" location="TECH" email="" link="" SupportLine="Vision" placeholders="1" id="aZdlIUR2iYrZKvGYE1C7-25">
          <mxCell style="label;whiteSpace=wrap;html=1;rounded=1;glass=0;treeFolding=1;treeMoving=1;fillColor=#dae8fc;strokeColor=#6c8ebf;shadow=1;fontColor=default;" parent="aZdlIUR2iYrZKvGYE1C7-2" vertex="1">
            <mxGeometry x="1500" y="555" width="180" height="80" as="geometry" />
          </mxCell>
        </UserObject>
        <UserObject label="%name%&lt;br&gt;&lt;i style=&quot;color: gray&quot;&gt;%position%&lt;br&gt;&lt;/i&gt;&lt;font style=&quot;font-size: 12px&quot;&gt;&lt;span style=&quot;font-weight: 400 ; background-color: rgb(255 , 255 , 255)&quot;&gt;Line: &lt;/span&gt;&lt;span style=&quot;font-weight: 400 ; background-color: rgb(255 , 255 , 255)&quot;&gt;&lt;font style=&quot;font-size: 12px&quot;&gt;%SupportLine%&lt;/font&gt;&lt;/span&gt;&lt;/font&gt;" name="Riccardo Cova" position="Member" location="TECH" email="" link="" SupportLine="APPLI + AUTO" placeholders="1" id="AfoL4CSpzvlY7jJXczhF-0">
          <mxCell style="label;whiteSpace=wrap;html=1;rounded=1;glass=0;treeFolding=1;treeMoving=1;fillColor=#f8cecc;strokeColor=#b85450;shadow=1;" parent="aZdlIUR2iYrZKvGYE1C7-2" vertex="1">
            <mxGeometry x="660" y="553.75" width="180" height="80" as="geometry" />
          </mxCell>
        </UserObject>
        <mxCell id="AfoL4CSpzvlY7jJXczhF-1" value="" style="endArrow=blockThin;endFill=1;fontSize=11;edgeStyle=elbowEdgeStyle;elbow=vertical;rounded=0;" parent="aZdlIUR2iYrZKvGYE1C7-2" source="aZdlIUR2iYrZKvGYE1C7-5" target="AfoL4CSpzvlY7jJXczhF-0" edge="1">
          <mxGeometry relative="1" as="geometry">
            <mxPoint x="480" y="285" as="sourcePoint" />
            <mxPoint x="311" y="553.75" as="targetPoint" />
          </mxGeometry>
        </mxCell>
        <mxCell id="aZdlIUR2iYrZKvGYE1C7-26" value="Tech Structure idea" style="text;strokeColor=none;fillColor=none;html=1;fontSize=24;fontStyle=1;verticalAlign=middle;align=center;fontColor=#3333FF;" parent="aZdlIUR2iYrZKvGYE1C7-1" vertex="1">
          <mxGeometry x="50" y="20" width="240" height="40" as="geometry" />
        </mxCell>
      </root>
    </mxGraphModel>
  </diagram>
  <diagram name="FY-2022 -2H" id="EvBtKXzdYd5BpaQnndV9">
    <mxGraphModel dx="1278" dy="635" grid="1" gridSize="10" guides="1" tooltips="1" connect="1" arrows="1" fold="1" page="1" pageScale="1.5" pageWidth="1654" pageHeight="1169" math="0" shadow="0">
      <root>
        <mxCell id="19u7CyMyeahVDAuBiboR-0" />
        <mxCell id="19u7CyMyeahVDAuBiboR-1" parent="19u7CyMyeahVDAuBiboR-0" />
        <mxCell id="19u7CyMyeahVDAuBiboR-2" value="Tech Structure" style="swimlane;html=1;startSize=20;horizontal=1;containerType=tree;glass=0;fillColor=#dae8fc;strokeColor=#6c8ebf;" parent="19u7CyMyeahVDAuBiboR-1" vertex="1">
          <mxGeometry x="40" y="85" width="2100" height="845" as="geometry">
            <mxRectangle x="30" y="85" width="120" height="20" as="alternateBounds" />
          </mxGeometry>
        </mxCell>
        <UserObject label="%name%&lt;br&gt;&lt;i style=&quot;color: gray&quot;&gt;%position%&lt;br&gt;&lt;/i&gt;&lt;span style=&quot;font-family: , &amp;#34;blinkmacsystemfont&amp;#34; , &amp;#34;segoe ui variable&amp;#34; , &amp;#34;segoe ui&amp;#34; , , , &amp;#34;helvetica&amp;#34; , &amp;#34;arial&amp;#34; , sans-serif , &amp;#34;apple color emoji&amp;#34; , &amp;#34;segoe ui emoji&amp;#34; ; font-size: 14px ; font-weight: 400 ; background-color: rgb(255 , 255 , 255)&quot;&gt;&lt;br&gt;Line: %SupportLine%&lt;/span&gt;" name="Eugenio Meregalli" position="Senior Tech Manager" location="TECH" email="" placeholders="1" SupportLine="ALL" id="19u7CyMyeahVDAuBiboR-3">
          <mxCell style="label;whiteSpace=wrap;html=1;rounded=1;glass=0;treeMoving=1;treeFolding=1;shadow=1;" parent="19u7CyMyeahVDAuBiboR-2" vertex="1">
            <mxGeometry x="845" y="45" width="220" height="120" as="geometry" />
          </mxCell>
        </UserObject>
        <mxCell id="19u7CyMyeahVDAuBiboR-4" value="" style="endArrow=blockThin;endFill=1;fontSize=11;edgeStyle=elbowEdgeStyle;elbow=vertical;rounded=0;" parent="19u7CyMyeahVDAuBiboR-2" source="19u7CyMyeahVDAuBiboR-3" target="19u7CyMyeahVDAuBiboR-5" edge="1">
          <mxGeometry relative="1" as="geometry" />
        </mxCell>
        <mxCell id="0AO8v5Od7u8DI3hSiAOk-6" style="edgeStyle=orthogonalEdgeStyle;rounded=0;orthogonalLoop=1;jettySize=auto;html=1;exitX=0.5;exitY=1;exitDx=0;exitDy=0;" parent="19u7CyMyeahVDAuBiboR-2" source="19u7CyMyeahVDAuBiboR-17" target="19u7CyMyeahVDAuBiboR-15" edge="1">
          <mxGeometry relative="1" as="geometry" />
        </mxCell>
        <UserObject label="%name%&lt;br&gt;&lt;i style=&quot;color: gray&quot;&gt;%position%&lt;br&gt;&lt;/i&gt;&lt;font style=&quot;font-size: 12px&quot;&gt;&lt;span style=&quot;font-weight: 400 ; background-color: rgb(255 , 255 , 255)&quot;&gt;Line: &lt;/span&gt;&lt;span style=&quot;font-weight: 400 ; background-color: rgb(255 , 255 , 255)&quot;&gt;&lt;font style=&quot;font-size: 12px&quot;&gt;%SupportLine%&lt;/font&gt;&lt;/span&gt;&lt;/font&gt;" name="Federico Butti" position="Manager" location="TECH" email="" link="" SupportLine="SEN + APP" placeholders="1" id="19u7CyMyeahVDAuBiboR-5">
          <mxCell style="label;whiteSpace=wrap;html=1;rounded=1;glass=0;treeFolding=1;treeMoving=1;fillColor=#f8cecc;strokeColor=#b85450;shadow=1;" parent="19u7CyMyeahVDAuBiboR-2" vertex="1">
            <mxGeometry x="390" y="205" width="180" height="80" as="geometry" />
          </mxCell>
        </UserObject>
        <mxCell id="19u7CyMyeahVDAuBiboR-6" value="" style="endArrow=blockThin;endFill=1;fontSize=11;edgeStyle=elbowEdgeStyle;elbow=vertical;rounded=0;" parent="19u7CyMyeahVDAuBiboR-2" source="19u7CyMyeahVDAuBiboR-3" target="19u7CyMyeahVDAuBiboR-7" edge="1">
          <mxGeometry relative="1" as="geometry" />
        </mxCell>
        <mxCell id="0AO8v5Od7u8DI3hSiAOk-3" style="edgeStyle=orthogonalEdgeStyle;rounded=0;orthogonalLoop=1;jettySize=auto;html=1;exitX=0.5;exitY=1;exitDx=0;exitDy=0;" parent="19u7CyMyeahVDAuBiboR-2" source="19u7CyMyeahVDAuBiboR-19" target="19u7CyMyeahVDAuBiboR-24" edge="1">
          <mxGeometry relative="1" as="geometry" />
        </mxCell>
        <mxCell id="0AO8v5Od7u8DI3hSiAOk-4" style="edgeStyle=orthogonalEdgeStyle;rounded=0;orthogonalLoop=1;jettySize=auto;html=1;exitX=0.5;exitY=1;exitDx=0;exitDy=0;" parent="19u7CyMyeahVDAuBiboR-2" source="19u7CyMyeahVDAuBiboR-19" target="19u7CyMyeahVDAuBiboR-21" edge="1">
          <mxGeometry relative="1" as="geometry" />
        </mxCell>
        <mxCell id="0AO8v5Od7u8DI3hSiAOk-9" style="edgeStyle=orthogonalEdgeStyle;rounded=0;orthogonalLoop=1;jettySize=auto;html=1;exitX=0.5;exitY=1;exitDx=0;exitDy=0;" parent="19u7CyMyeahVDAuBiboR-2" source="19u7CyMyeahVDAuBiboR-19" target="19u7CyMyeahVDAuBiboR-23" edge="1">
          <mxGeometry relative="1" as="geometry" />
        </mxCell>
        <UserObject label="%name%&lt;br&gt;&lt;i style=&quot;color: gray&quot;&gt;%position%&lt;br&gt;&lt;/i&gt;&lt;span style=&quot;font-weight: 400 ; background-color: rgb(255 , 255 , 255)&quot;&gt;Line:&amp;nbsp;&lt;/span&gt;&lt;span style=&quot;font-weight: 400 ; background-color: rgb(255 , 255 , 255)&quot;&gt;%SupportLine%&lt;/span&gt;" name="Giovanni Egitto" position="MDP Manager" location="TECH" email="" link="" SupportLine="V&amp;M + IM" placeholders="1" id="19u7CyMyeahVDAuBiboR-7">
          <mxCell style="label;whiteSpace=wrap;html=1;rounded=1;glass=0;treeFolding=1;treeMoving=1;fillColor=#dae8fc;strokeColor=#6c8ebf;shadow=1;" parent="19u7CyMyeahVDAuBiboR-2" vertex="1">
            <mxGeometry x="1580" y="205" width="180" height="80" as="geometry" />
          </mxCell>
        </UserObject>
        <mxCell id="19u7CyMyeahVDAuBiboR-10" value="" style="endArrow=blockThin;endFill=1;fontSize=11;edgeStyle=elbowEdgeStyle;elbow=vertical;rounded=0;" parent="19u7CyMyeahVDAuBiboR-2" source="19u7CyMyeahVDAuBiboR-5" target="19u7CyMyeahVDAuBiboR-11" edge="1">
          <mxGeometry relative="1" as="geometry">
            <mxPoint x="410" y="230" as="sourcePoint" />
          </mxGeometry>
        </mxCell>
        <UserObject label="%name%&lt;br&gt;&lt;i style=&quot;color: gray&quot;&gt;%position%&lt;br&gt;&lt;/i&gt;&lt;font style=&quot;font-size: 12px&quot;&gt;&lt;span style=&quot;font-weight: 400 ; background-color: rgb(255 , 255 , 255)&quot;&gt;Line: &lt;/span&gt;&lt;span style=&quot;font-weight: 400 ; background-color: rgb(255 , 255 , 255)&quot;&gt;&lt;font style=&quot;font-size: 12px&quot;&gt;%SupportLine%&lt;/font&gt;&lt;/span&gt;&lt;/font&gt;" name="Jaspreet Singh" position="MDP Team Leader" location="TECH" email="" link="" SupportLine="APPLI + AUTO + MKG" placeholders="1" id="19u7CyMyeahVDAuBiboR-11">
          <mxCell style="label;whiteSpace=wrap;html=1;rounded=1;glass=0;treeFolding=1;treeMoving=1;fillColor=#f8cecc;strokeColor=#b85450;shadow=1;" parent="19u7CyMyeahVDAuBiboR-2" vertex="1">
            <mxGeometry x="930" y="335" width="180" height="80" as="geometry" />
          </mxCell>
        </UserObject>
        <UserObject label="%name%&lt;br&gt;&lt;i style=&quot;color: gray&quot;&gt;%position%&lt;br&gt;&lt;/i&gt;&lt;font style=&quot;font-size: 12px&quot;&gt;&lt;span style=&quot;font-weight: 400 ; background-color: rgb(255 , 255 , 255)&quot;&gt;Line: &lt;/span&gt;&lt;span style=&quot;font-weight: 400 ; background-color: rgb(255 , 255 , 255)&quot;&gt;&lt;font style=&quot;font-size: 12px&quot;&gt;%SupportLine%&lt;/font&gt;&lt;/span&gt;&lt;/font&gt;" name="Paolo Carenzi" position="Member" location="TECH" email="" link="" SupportLine="SEN" placeholders="1" id="19u7CyMyeahVDAuBiboR-15">
          <mxCell style="label;whiteSpace=wrap;html=1;rounded=1;glass=0;treeFolding=1;treeMoving=1;fillColor=#f8cecc;strokeColor=#b85450;shadow=1;" parent="19u7CyMyeahVDAuBiboR-2" vertex="1">
            <mxGeometry x="239" y="555" width="180" height="80" as="geometry" />
          </mxCell>
        </UserObject>
        <mxCell id="19u7CyMyeahVDAuBiboR-16" value="" style="endArrow=blockThin;endFill=1;fontSize=11;edgeStyle=elbowEdgeStyle;elbow=vertical;rounded=0;" parent="19u7CyMyeahVDAuBiboR-2" source="19u7CyMyeahVDAuBiboR-5" target="19u7CyMyeahVDAuBiboR-17" edge="1">
          <mxGeometry relative="1" as="geometry">
            <mxPoint x="410" y="230" as="sourcePoint" />
          </mxGeometry>
        </mxCell>
        <UserObject label="%name%&lt;br&gt;&lt;i style=&quot;color: gray&quot;&gt;%position%&lt;br&gt;&lt;/i&gt;&lt;font style=&quot;font-size: 12px&quot;&gt;&lt;span style=&quot;font-weight: 400 ; background-color: rgb(255 , 255 , 255)&quot;&gt;Line: &lt;/span&gt;&lt;span style=&quot;font-weight: 400 ; background-color: rgb(255 , 255 , 255)&quot;&gt;&lt;font style=&quot;font-size: 12px&quot;&gt;%SupportLine%&lt;/font&gt;&lt;/span&gt;&lt;/font&gt;" name="Fabio Ciardullo" position="MDP Team Leader" location="TECH" email="" link="" SupportLine="SEN + VH" placeholders="1" id="19u7CyMyeahVDAuBiboR-17">
          <mxCell style="label;whiteSpace=wrap;html=1;rounded=1;glass=0;treeFolding=1;treeMoving=1;fillColor=#f8cecc;strokeColor=#b85450;shadow=1;align=left;labelPosition=center;verticalLabelPosition=middle;verticalAlign=middle;spacingLeft=20;" parent="19u7CyMyeahVDAuBiboR-2" vertex="1">
            <mxGeometry x="50" y="325" width="180" height="80" as="geometry" />
          </mxCell>
        </UserObject>
        <UserObject label="%name%&lt;br&gt;&lt;i style=&quot;color: gray&quot;&gt;%position%&lt;br&gt;&lt;/i&gt;&lt;span style=&quot;font-weight: 400 ; background-color: rgb(255 , 255 , 255)&quot;&gt;Line:&amp;nbsp;&lt;/span&gt;&lt;span style=&quot;font-weight: 400 ; background-color: rgb(255 , 255 , 255)&quot;&gt;%SupportLine%&lt;/span&gt;" name="Pietro Marelli" position="Member" location="TECH" email="" link="" SupportLine="Vision + HPM" placeholders="1" id="19u7CyMyeahVDAuBiboR-21">
          <mxCell style="label;whiteSpace=wrap;html=1;rounded=1;glass=0;treeFolding=1;treeMoving=1;fillColor=#fff2cc;strokeColor=#d6b656;shadow=1;fontColor=#000000;" parent="19u7CyMyeahVDAuBiboR-2" vertex="1">
            <mxGeometry x="1670" y="555" width="180" height="80" as="geometry" />
          </mxCell>
        </UserObject>
        <UserObject label="%name%&lt;br&gt;&lt;i style=&quot;color: gray&quot;&gt;%position%&lt;br&gt;&lt;/i&gt;&lt;span style=&quot;font-weight: 400 ; background-color: rgb(255 , 255 , 255)&quot;&gt;Line:&amp;nbsp;&lt;/span&gt;&lt;span style=&quot;font-weight: 400 ; background-color: rgb(255 , 255 , 255)&quot;&gt;%SupportLine%&lt;/span&gt;" name="Emilio Redaelli" position="Member" location="TECH" email="" link="" SupportLine="Vision + HPM" placeholders="1" id="19u7CyMyeahVDAuBiboR-23">
          <mxCell style="label;whiteSpace=wrap;html=1;rounded=1;glass=0;treeFolding=1;treeMoving=1;fillColor=#fff2cc;strokeColor=#d6b656;shadow=1;fontColor=#000000;" parent="19u7CyMyeahVDAuBiboR-2" vertex="1">
            <mxGeometry x="1880" y="555" width="180" height="80" as="geometry" />
          </mxCell>
        </UserObject>
        <UserObject label="%name%&lt;br&gt;&lt;i style=&quot;color: gray&quot;&gt;%position%&lt;br&gt;&lt;/i&gt;&lt;span style=&quot;font-weight: 400 ; background-color: rgb(255 , 255 , 255)&quot;&gt;Line:&amp;nbsp;&lt;/span&gt;&lt;span style=&quot;font-weight: 400 ; background-color: rgb(255 , 255 , 255)&quot;&gt;%SupportLine%&lt;/span&gt;" name="Manuel Sampieri" position="Member" location="TECH" email="" link="" SupportLine="Vision + HPM" placeholders="1" id="19u7CyMyeahVDAuBiboR-24">
          <mxCell style="label;whiteSpace=wrap;html=1;rounded=1;glass=0;treeFolding=1;treeMoving=1;fillColor=#dae8fc;strokeColor=#6c8ebf;shadow=1;" parent="19u7CyMyeahVDAuBiboR-2" vertex="1">
            <mxGeometry x="1470" y="555" width="180" height="80" as="geometry" />
          </mxCell>
        </UserObject>
        <mxCell id="19u7CyMyeahVDAuBiboR-26" value="" style="endArrow=blockThin;endFill=1;fontSize=11;edgeStyle=elbowEdgeStyle;elbow=vertical;rounded=0;" parent="19u7CyMyeahVDAuBiboR-2" source="19u7CyMyeahVDAuBiboR-7" target="19u7CyMyeahVDAuBiboR-27" edge="1">
          <mxGeometry relative="1" as="geometry">
            <mxPoint x="760" y="230" as="sourcePoint" />
          </mxGeometry>
        </mxCell>
        <UserObject label="%name%&lt;br&gt;&lt;i style=&quot;color: gray&quot;&gt;%position%&lt;br&gt;&lt;/i&gt;&lt;span style=&quot;font-weight: 400 ; background-color: rgb(255 , 255 , 255)&quot;&gt;Line:&amp;nbsp;&lt;/span&gt;&lt;span style=&quot;font-weight: 400 ; background-color: rgb(255 , 255 , 255)&quot;&gt;%SupportLine%&lt;/span&gt;" name="Caterina Putti" position="Member" location="TECH" email="" link="" SupportLine="IM + HPM + XM" placeholders="1" id="19u7CyMyeahVDAuBiboR-27">
          <mxCell style="label;whiteSpace=wrap;html=1;rounded=1;glass=0;treeFolding=1;treeMoving=1;fillColor=#69D3FA;strokeColor=#d6b656;shadow=1;fontColor=#000000;" parent="19u7CyMyeahVDAuBiboR-2" vertex="1">
            <mxGeometry x="1280" y="555" width="180" height="80" as="geometry" />
          </mxCell>
        </UserObject>
        <mxCell id="19u7CyMyeahVDAuBiboR-28" value="" style="endArrow=blockThin;endFill=1;fontSize=11;edgeStyle=elbowEdgeStyle;elbow=vertical;rounded=0;" parent="19u7CyMyeahVDAuBiboR-2" source="19u7CyMyeahVDAuBiboR-11" target="19u7CyMyeahVDAuBiboR-29" edge="1">
          <mxGeometry relative="1" as="geometry">
            <mxPoint x="160" y="340" as="sourcePoint" />
          </mxGeometry>
        </mxCell>
        <UserObject label="%name%&lt;br&gt;&lt;i style=&quot;color: gray&quot;&gt;%position%&lt;br&gt;&lt;/i&gt;&lt;font style=&quot;font-size: 12px&quot;&gt;&lt;span style=&quot;font-weight: 400 ; background-color: rgb(255 , 255 , 255)&quot;&gt;Line: &lt;/span&gt;&lt;span style=&quot;font-weight: 400 ; background-color: rgb(255 , 255 , 255)&quot;&gt;&lt;font style=&quot;font-size: 12px&quot;&gt;%SupportLine%&lt;/font&gt;&lt;/span&gt;&lt;/font&gt;" name="Riccardo Cova" position="Member" location="TECH" email="" link="" SupportLine="APPLI + AUTO" placeholders="1" id="19u7CyMyeahVDAuBiboR-29">
          <mxCell style="label;whiteSpace=wrap;html=1;rounded=1;glass=0;treeFolding=1;treeMoving=1;fillColor=#fff2cc;strokeColor=#d6b656;shadow=1;" parent="19u7CyMyeahVDAuBiboR-2" vertex="1">
            <mxGeometry x="630" y="555" width="180" height="80" as="geometry" />
          </mxCell>
        </UserObject>
        <mxCell id="19u7CyMyeahVDAuBiboR-30" value="" style="endArrow=blockThin;endFill=1;fontSize=11;edgeStyle=elbowEdgeStyle;elbow=vertical;rounded=0;exitX=0.5;exitY=1;exitDx=0;exitDy=0;" parent="19u7CyMyeahVDAuBiboR-2" source="19u7CyMyeahVDAuBiboR-17" target="19u7CyMyeahVDAuBiboR-31" edge="1">
          <mxGeometry relative="1" as="geometry">
            <mxPoint x="160" y="340" as="sourcePoint" />
          </mxGeometry>
        </mxCell>
        <UserObject label="%name%&lt;br&gt;&lt;i style=&quot;color: gray&quot;&gt;%position%&lt;br&gt;&lt;/i&gt;&lt;font style=&quot;font-size: 12px&quot;&gt;&lt;span style=&quot;font-weight: 400 ; background-color: rgb(255 , 255 , 255)&quot;&gt;Line: &lt;/span&gt;&lt;span style=&quot;font-weight: 400 ; background-color: rgb(255 , 255 , 255)&quot;&gt;&lt;font style=&quot;font-size: 12px&quot;&gt;%SupportLine%&lt;/font&gt;&lt;/span&gt;&lt;/font&gt;" name="Antonio Massetti" position="Member" location="TECH" email="" link="" SupportLine="APPLI + AUTO" placeholders="1" id="19u7CyMyeahVDAuBiboR-31">
          <mxCell style="label;whiteSpace=wrap;html=1;rounded=1;glass=0;treeFolding=1;treeMoving=1;fillColor=#fff2cc;strokeColor=#d6b656;shadow=1;fontColor=#000000;" parent="19u7CyMyeahVDAuBiboR-2" vertex="1">
            <mxGeometry x="440" y="555" width="180" height="80" as="geometry" />
          </mxCell>
        </UserObject>
        <UserObject label="%name%&lt;br&gt;&lt;i style=&quot;color: gray&quot;&gt;%position%&lt;br&gt;&lt;/i&gt;&lt;font style=&quot;font-size: 12px&quot;&gt;&lt;span style=&quot;font-weight: 400 ; background-color: rgb(255 , 255 , 255)&quot;&gt;Line: &lt;/span&gt;&lt;span style=&quot;font-weight: 400 ; background-color: rgb(255 , 255 , 255)&quot;&gt;&lt;font style=&quot;font-size: 12px&quot;&gt;%SupportLine%&lt;/font&gt;&lt;/span&gt;&lt;/font&gt;" name="Valerio Malfatto" position="Member" location="TECH" email="" link="" SupportLine="SEN" placeholders="1" id="VMt5CkiIu0rWYswqzMI8-0">
          <mxCell style="label;whiteSpace=wrap;html=1;rounded=1;glass=0;treeFolding=1;treeMoving=1;fillColor=#fff2cc;strokeColor=#d6b656;shadow=1;fontColor=#000000;" parent="19u7CyMyeahVDAuBiboR-2" vertex="1">
            <mxGeometry x="30" y="555" width="180" height="80" as="geometry" />
          </mxCell>
        </UserObject>
        <mxCell id="VMt5CkiIu0rWYswqzMI8-1" value="" style="endArrow=blockThin;endFill=1;fontSize=11;edgeStyle=elbowEdgeStyle;elbow=vertical;rounded=0;" parent="19u7CyMyeahVDAuBiboR-2" source="19u7CyMyeahVDAuBiboR-17" target="VMt5CkiIu0rWYswqzMI8-0" edge="1">
          <mxGeometry relative="1" as="geometry">
            <mxPoint x="620" y="415" as="sourcePoint" />
            <mxPoint x="746" y="555" as="targetPoint" />
          </mxGeometry>
        </mxCell>
        <UserObject label="%name%&lt;br&gt;&lt;i style=&quot;color: gray&quot;&gt;%position%&lt;br&gt;&lt;/i&gt;&lt;span style=&quot;font-weight: 400 ; background-color: rgb(255 , 255 , 255)&quot;&gt;Line:&amp;nbsp;&lt;/span&gt;&lt;span style=&quot;font-weight: 400 ; background-color: rgb(255 , 255 , 255)&quot;&gt;%SupportLine%&lt;/span&gt;" name="Simona Cavalli" position="MDP Team Leader" location="TECH" email="" link="" SupportLine="Vision + HPM" placeholders="1" id="19u7CyMyeahVDAuBiboR-19">
          <mxCell style="label;whiteSpace=wrap;html=1;rounded=1;glass=0;treeFolding=1;treeMoving=1;fillColor=#dae8fc;strokeColor=#6c8ebf;shadow=1;" parent="19u7CyMyeahVDAuBiboR-2" vertex="1">
            <mxGeometry x="1750" y="335" width="180" height="80" as="geometry" />
          </mxCell>
        </UserObject>
        <mxCell id="19u7CyMyeahVDAuBiboR-18" value="" style="endArrow=blockThin;endFill=1;fontSize=11;edgeStyle=elbowEdgeStyle;elbow=vertical;rounded=0;" parent="19u7CyMyeahVDAuBiboR-2" source="19u7CyMyeahVDAuBiboR-7" target="19u7CyMyeahVDAuBiboR-19" edge="1">
          <mxGeometry relative="1" as="geometry">
            <mxPoint x="410" y="230" as="sourcePoint" />
          </mxGeometry>
        </mxCell>
        <mxCell id="19u7CyMyeahVDAuBiboR-34" value="Tech Structure idea" style="text;strokeColor=none;fillColor=none;html=1;fontSize=24;fontStyle=1;verticalAlign=middle;align=center;fontColor=#3333FF;" parent="19u7CyMyeahVDAuBiboR-1" vertex="1">
          <mxGeometry x="50" y="20" width="240" height="40" as="geometry" />
        </mxCell>
        <UserObject label="%name%&lt;br&gt;&lt;i style=&quot;color: gray&quot;&gt;%position%&lt;br&gt;&lt;/i&gt;&lt;span style=&quot;font-weight: 400 ; background-color: rgb(255 , 255 , 255)&quot;&gt;Line:&amp;nbsp;&lt;/span&gt;&lt;span style=&quot;font-weight: 400 ; background-color: rgb(255 , 255 , 255)&quot;&gt;%SupportLine%&lt;/span&gt;" name="Sebastiano Panfili" position="Member" location="TECH" email="" link="" SupportLine="ML" placeholders="1" id="19u7CyMyeahVDAuBiboR-33">
          <mxCell style="label;whiteSpace=wrap;html=1;rounded=1;glass=0;fillColor=#d5e8d4;strokeColor=#82b366;shadow=1;" parent="19u7CyMyeahVDAuBiboR-1" vertex="1">
            <mxGeometry x="780" y="830" width="180" height="80" as="geometry" />
          </mxCell>
        </UserObject>
        <mxCell id="VMt5CkiIu0rWYswqzMI8-6" style="edgeStyle=orthogonalEdgeStyle;rounded=0;orthogonalLoop=1;jettySize=auto;html=1;entryX=0.5;entryY=0;entryDx=0;entryDy=0;exitX=0.5;exitY=1;exitDx=0;exitDy=0;" parent="19u7CyMyeahVDAuBiboR-1" source="19u7CyMyeahVDAuBiboR-11" target="19u7CyMyeahVDAuBiboR-33" edge="1">
          <mxGeometry relative="1" as="geometry">
            <mxPoint x="850" y="470" as="sourcePoint" />
          </mxGeometry>
        </mxCell>
        <mxCell id="VMt5CkiIu0rWYswqzMI8-12" style="edgeStyle=orthogonalEdgeStyle;rounded=0;orthogonalLoop=1;jettySize=auto;html=1;entryX=0.5;entryY=0;entryDx=0;entryDy=0;" parent="19u7CyMyeahVDAuBiboR-1" source="19u7CyMyeahVDAuBiboR-11" target="VMt5CkiIu0rWYswqzMI8-11" edge="1">
          <mxGeometry relative="1" as="geometry">
            <mxPoint x="995" y="250" as="sourcePoint" />
            <mxPoint x="995" y="630" as="targetPoint" />
          </mxGeometry>
        </mxCell>
        <UserObject label="%name%&lt;br&gt;&lt;i style=&quot;color: gray&quot;&gt;%position%&lt;br&gt;&lt;/i&gt;&lt;span style=&quot;font-weight: 400 ; background-color: rgb(255 , 255 , 255)&quot;&gt;Line:&amp;nbsp;&lt;/span&gt;&lt;span style=&quot;font-weight: 400 ; background-color: rgb(255 , 255 , 255)&quot;&gt;%SupportLine%&lt;/span&gt;" name="Giacomo D&#39;Agostini" position="Member" location="TECH" email="" link="" SupportLine="MK" placeholders="1" id="VMt5CkiIu0rWYswqzMI8-13">
          <mxCell style="label;whiteSpace=wrap;html=1;rounded=1;glass=0;fillColor=#d5e8d4;strokeColor=#82b366;shadow=1;" parent="19u7CyMyeahVDAuBiboR-1" vertex="1">
            <mxGeometry x="1180" y="830" width="180" height="80" as="geometry" />
          </mxCell>
        </UserObject>
        <mxCell id="VMt5CkiIu0rWYswqzMI8-14" style="edgeStyle=orthogonalEdgeStyle;rounded=0;orthogonalLoop=1;jettySize=auto;html=1;startArrow=none;exitX=0.5;exitY=1;exitDx=0;exitDy=0;" parent="19u7CyMyeahVDAuBiboR-1" source="19u7CyMyeahVDAuBiboR-11" target="VMt5CkiIu0rWYswqzMI8-13" edge="1">
          <mxGeometry relative="1" as="geometry" />
        </mxCell>
        <UserObject label="%name%&lt;br&gt;&lt;i style=&quot;color: gray&quot;&gt;%position%&lt;br&gt;&lt;/i&gt;&lt;span style=&quot;font-weight: 400 ; background-color: rgb(255 , 255 , 255)&quot;&gt;Line:&amp;nbsp;&lt;/span&gt;&lt;span style=&quot;font-weight: 400 ; background-color: rgb(255 , 255 , 255)&quot;&gt;%SupportLine%&lt;/span&gt;" name="Pietrocarmine Madeo" position="Member" location="TECH" email="" link="" SupportLine="MK" placeholders="1" id="VMt5CkiIu0rWYswqzMI8-11">
          <mxCell style="label;whiteSpace=wrap;html=1;rounded=1;glass=0;fillColor=#d5e8d4;strokeColor=#82b366;shadow=1;" parent="19u7CyMyeahVDAuBiboR-1" vertex="1">
            <mxGeometry x="970" y="830" width="180" height="80" as="geometry" />
          </mxCell>
        </UserObject>
        <mxCell id="yPsqW1mTSqTrBcdC8YeK-0" value="" style="edgeStyle=orthogonalEdgeStyle;rounded=0;orthogonalLoop=1;jettySize=auto;html=1;endArrow=none;" parent="19u7CyMyeahVDAuBiboR-1" source="19u7CyMyeahVDAuBiboR-11" target="VMt5CkiIu0rWYswqzMI8-11" edge="1">
          <mxGeometry relative="1" as="geometry">
            <mxPoint x="995" y="490" as="sourcePoint" />
            <mxPoint x="1090" y="970" as="targetPoint" />
          </mxGeometry>
        </mxCell>
      </root>
    </mxGraphModel>
  </diagram>
</mxfile>
